<?xml version="1.0" standalone="no"?>
<!DOCTYPE svg PUBLIC "-//W3C//DTD SVG 20010904//EN"
 "http://www.w3.org/TR/2001/REC-SVG-20010904/DTD/svg10.dtd">
<svg version="1.0" xmlns="http://www.w3.org/2000/svg"
 width="1476.000000pt" height="1476.000000pt" viewBox="0 0 1476.000000 1476.000000"
 preserveAspectRatio="xMidYMid meet">
<metadata>
Created by potrace 1.14, written by Peter Selinger 2001-2017
</metadata>
<g transform="translate(0.000000,1476.000000) scale(0.100000,-0.100000)"
fill="#000000" stroke="none">
<path d="M0 7380 l0 -7380 7380 0 7380 0 0 7380 0 7380 -7380 0 -7380 0 0
-7380z m7153 5793 c4 -318 7 -1370 7 -2338 l-1 -1760 -514 -565 c-283 -310
-515 -567 -515 -570 0 -18 -1020 -5608 -1027 -5628 -6 -17 -290 -182 -1143
-667 -666 -379 -1136 -640 -1138 -632 -1 6 236 1844 527 4082 l529 4070 1037
2275 c570 1251 1041 2283 1046 2293 9 16 48 17 598 17 l588 0 6 -577z m2679
-1720 l1046 -2298 530 -4075 c291 -2241 528 -4076 526 -4078 -2 -3 -2270 1282
-2281 1292 -1 1 -234 1274 -517 2829 l-515 2827 -511 560 -510 559 0 2341 0
2340 593 0 593 0 1046 -2297z"/>
</g>
</svg>
